<?xml version="1.0" encoding="utf-8"?>
<!-- Generator: Adobe Illustrator 27.7.0, SVG Export Plug-In . SVG Version: 6.00 Build 0)  -->
<svg version="1.1" id="Capa_1" xmlns="http://www.w3.org/2000/svg" xmlns:xlink="http://www.w3.org/1999/xlink" x="0px" y="0px"
	 viewBox="0 0 599.64 515.52" style="enable-background:new 0 0 599.64 515.52;" xml:space="preserve">
<style type="text/css">
	.st0{fill:#666969;}
	.st1{fill:#1A1A1A;}
	.st2{fill:#B5B7B7;}
	.st3{fill:#E5E5E5;}
	.st4{fill:#F1F1F1;}
	.st5{fill:#4D4D4D;}
	.st6{fill:#808080;}
	.st7{fill:#B2B2B2;}
	.st8{fill:#DB2615;}
	.st9{fill:#8D1913;}
	.st10{fill:#DFDC00;}
	.st11{fill:#134797;}
	.st12{fill:#1B1F3B;}
	.st13{fill:#C02639;}
	.st14{fill:#262896;}
	.st15{fill:#CBCBCB;}
	.st16{opacity:0.4;fill:url(#SVGID_1_);}
	.st17{opacity:0.4;fill:url(#SVGID_00000118372900789441156820000002049936357602363564_);}
	.st18{fill:#FAAF3B;}
	.st19{opacity:0.5;}
</style>
<g>
	<g>
		<path class="st0" d="M107.06,475.4v3.39c0,3.9,3.13,7.07,6.98,7.07H479.6c3.86,0,6.98-3.16,6.98-7.07v-3.39H107.06z"/>
		<path class="st1" d="M452.69,467.47V272.99c0-3.97-3.22-7.19-7.19-7.19H148.13c-3.97,0-7.19,3.22-7.19,7.19v194.48H452.69z"/>
		<path class="st2" d="M101.39,467.24v4.24c0,4.87,3.22,8.83,7.19,8.83h376.47c3.97,0,7.19-3.95,7.19-8.83v-4.24H101.39z"/>
		<path class="st3" d="M264.82,467.24c0.33,3.17,2.98,5.64,6.24,5.64h51.52c3.25,0,5.9-2.48,6.24-5.64H264.82z"/>
		<rect x="153.1" y="279.52" class="st4" width="287.44" height="174.23"/>
		<path class="st5" d="M303.12,273.14c0,2.84-2.3,5.13-5.13,5.13c-2.83,0-5.13-2.3-5.13-5.13c0-2.83,2.3-5.13,5.13-5.13
			C300.82,268.01,303.12,270.31,303.12,273.14z"/>
		<path class="st6" d="M294.99,273.18c0-1.67,1.36-3.03,3.03-3.03c1.67,0,3.03,1.36,3.03,3.03c0,1.67-1.36,3.03-3.03,3.03
			C296.35,276.2,294.99,274.85,294.99,273.18z"/>
		<path class="st7" d="M294.99,273.48c0-1.51,1.22-2.72,2.72-2.72c1.51,0,2.73,1.22,2.73,2.72c0,1.51-1.22,2.72-2.73,2.72
			C296.21,276.2,294.99,274.99,294.99,273.48z"/>
		<path class="st3" d="M299.71,272.4c0,0.5-0.41,0.91-0.91,0.91c-0.5,0-0.91-0.41-0.91-0.91c0-0.5,0.41-0.91,0.91-0.91
			C299.3,271.49,299.71,271.9,299.71,272.4z"/>
	</g>
	<g>
		<path class="st8" d="M373.2,442.5c-1.32-0.35-11.45-2.84-20.39-5.03c-21.11-5.18-30.25-7.44-32.23-8
			c-84.14-24.11-130.36-57.37-141.3-101.67c-15.08-61.04,44.64-118.18,76.72-148.88c3.69-3.53,6.88-6.58,9.51-9.21
			c37.42-37.42,44.23-45.31,44.5-45.63l-0.13,0.16l29.87,24.61c-1.06,1.28-8.28,9.63-46.87,48.23c-2.93,2.93-6.42,6.27-10.12,9.81
			c-26.42,25.29-75.61,72.35-65.91,111.64c7.12,28.84,46.68,54.34,114.39,73.75c2.06,0.57,19.35,4.81,30.8,7.62
			c12.42,3.05,19.53,4.79,21.15,5.23L373.2,442.5z"/>
	</g>
	<path class="st9" d="M440.54,323.71c-24.43,1.31-43.85,21.53-43.85,46.29c0,3.38,0.37,6.67,1.06,9.84
		c-2.29-0.54-4.66-0.85-7.11-0.85c-0.92,0-1.82,0.06-2.72,0.14c0.96-2.99,1.5-6.17,1.5-9.48c0-17.07-13.84-30.91-30.91-30.91
		c-14.3,0-26.29,9.72-29.83,22.9c-3.28-1.63-6.94-2.59-10.82-2.73c0.18-1.34,0.28-2.71,0.28-4.1c0-17.21-13.96-31.17-31.17-31.17
		c-14.9,0-27.36,10.46-30.43,24.44c-1.68-1.61-3.86-2.69-6.28-2.99c0-0.03,0-0.06,0-0.09c0-17.41-14.12-31.53-31.53-31.53
		c-17.41,0-31.53,14.12-31.53,31.53c0,5.01,1.18,9.75,3.26,13.96c-0.6-0.06-1.2-0.09-1.82-0.09c-9.75,0-17.66,7.91-17.66,17.66
		c0,3.5,1.03,6.75,2.79,9.5c-20.27,0.93-36.41,17.66-36.41,38.15c0,11.92,5.47,22.57,14.02,29.57h289.17V323.71z"/>
	<g>
		<path class="st8" d="M332.78,426.93c-45.02-12.03-80.26-26.79-104.75-43.87c-23.2-16.18-37.69-35.01-43.07-55.98
			c-14.9-58.07,43.56-114,74.96-144.06c3.72-3.56,6.92-6.63,9.6-9.3c37.91-37.91,44.55-45.65,44.81-45.96l5.91,5.02l15.1,12.44
			c-0.63,0.77-7.28,8.6-46.51,47.82c-2.89,2.89-6.19,6.05-10.03,9.72c-27.37,26.19-78.32,74.94-67.39,117.53
			c3.71,14.45,14.55,28.03,32.23,40.36c21.88,15.26,54.24,28.68,96.18,39.89L332.78,426.93z"/>
	</g>
	<path class="st8" d="M440.54,375.75c-0.04,0-0.08,0-0.12,0c-19.26,0-35.57,12.57-41.21,29.95c-2.89-4.22-7.73-6.98-13.23-6.98
		c-2.52,0-4.9,0.6-7.03,1.64c-4.16-9.83-13.91-16.73-25.26-16.73c-11.86,0-21.94,7.55-25.76,18.09c-1.87-0.62-3.87-0.97-5.96-0.97
		c-3.01,0-5.84,0.72-8.36,1.97c0.04-0.65,0.06-1.31,0.06-1.97c0-18.56-15.05-33.61-33.61-33.61c-13.49,0-25.12,7.95-30.47,19.42
		c-2.5-1.83-5.57-2.92-8.9-2.92c-2.58,0-5.01,0.65-7.13,1.79c-5.64-8.21-15.08-13.6-25.79-13.6c-17.27,0-31.27,14-31.27,31.27
		c0,5.76,1.56,11.15,4.28,15.78c-9.74,2.29-17,11.02-17,21.46c0,5.06,1.72,9.71,4.59,13.44h272.16V375.75z"/>
	<path class="st10" d="M376.72,429.3c-1.45-0.39-10.74-2.67-20.58-5.08c-17.42-4.27-29.9-7.34-31.81-7.89
		c-40.83-11.7-72.68-25.8-94.68-41.9c-20.08-14.7-32.57-31.49-37.12-49.91c-13.18-53.36,42.82-106.95,72.9-135.73
		c3.75-3.59,6.99-6.69,9.72-9.42c38.72-38.72,45.02-46.16,45.27-46.46l8.77,7.25c-0.24,0.29-6.36,7.62-45.99,47.25
		c-2.82,2.82-6.1,5.96-9.9,9.6c-28.42,27.2-81.32,77.82-69.72,124.78c8.48,34.35,50.16,62.48,123.88,83.6
		c1.85,0.53,18.22,4.55,31.38,7.78c10.33,2.53,19.24,4.72,20.8,5.14L376.72,429.3z"/>
	<path class="st10" d="M440.54,408.27c-3.2-1.18-6.64-1.86-10.24-1.86c-16.29,0-29.5,13.14-29.64,29.4
		c-0.22-0.01-0.43-0.03-0.65-0.03c-1.45,0-2.82,0.33-4.06,0.9c-0.6-14.19-12.26-25.53-26.61-25.53c-14.72,0-26.66,11.94-26.66,26.66
		c0,0.27,0.03,0.53,0.04,0.8c-2.53-1.78-5.6-2.84-8.93-2.84c-1.73,0-3.4,0.3-4.96,0.82c0.64-2.2,1-4.52,1-6.93
		c0-13.7-11.1-24.8-24.8-24.8c-12.6,0-22.98,9.4-24.56,21.57c-1.78-0.54-3.66-0.83-5.61-0.83c-5.44,0-10.35,2.24-13.88,5.84
		c-5.2-7.24-13.67-11.98-23.26-11.98c-15.82,0-28.64,12.82-28.64,28.64c0,1.93,0.2,3.82,0.56,5.64h230.9V408.27z"/>
	<g>
		<g>
			<path class="st9" d="M315.58,129.37c-6.32,3.21-13.3,8.33-19.88,14.91c-15.36,15.36-16.51,39.1-16.51,39.1s23.74-1.16,39.1-16.51
				c6.58-6.59,11.7-13.57,14.91-19.88L315.58,129.37z"/>
			<path class="st10" d="M317.27,131.05c-3.47,2.21-7.08,5.11-10.54,8.57c-11.03,11.03-11.86,28.07-11.86,28.07
				s17.05-0.83,28.08-11.86c3.46-3.46,6.36-7.07,8.57-10.54L317.27,131.05z"/>
			<path class="st4" d="M318.77,132.56c-1.42,1.12-2.84,2.37-4.23,3.76c-7.95,7.96-8.55,20.25-8.55,20.25s12.3-0.6,20.25-8.55
				c1.39-1.39,2.64-2.81,3.76-4.22L318.77,132.56z"/>
		</g>
		<path class="st11" d="M346.53,70.57c0,0-15.67,0.89-20.64-4.08c-4.97-4.97-42.32,25.94-34.75,55.05c0,0,12.38-16.78,23.32-4.52
			L346.53,70.57z"/>
		<path class="st12" d="M392,116.03c0,0-0.89,15.68,4.08,20.65c4.97,4.97-25.94,42.32-55.05,34.75c0,0,16.78-12.38,4.52-23.32
			L392,116.03z"/>
		
			<rect x="323.21" y="115.64" transform="matrix(0.707 -0.7072 0.7072 0.707 -1.0319 270.5829)" class="st13" width="5.64" height="41.8"/>
		<path class="st4" d="M345.21,152.6c15.39-8.94,32.88-22.57,49.84-39.53C434,74.13,455.38,32.35,442.8,19.77
			c-12.58-12.58-54.36,8.8-93.31,47.75c-16.96,16.96-30.58,34.45-39.52,49.84L345.21,152.6z"/>
		<path class="st14" d="M414.22,73.39c-6.91,6.91-18.13,6.92-25.04,0c-6.92-6.92-6.91-18.13,0-25.04c6.92-6.91,18.12-6.92,25.04,0
			C421.13,55.27,421.13,66.48,414.22,73.39z"/>
		<path class="st11" d="M441.32,50.04c6-13.85,6.94-24.81,1.48-30.28c-5.46-5.46-16.43-4.52-30.28,1.48c0,0,1.44,4.42,12.91,15.89
			C436.9,48.61,441.32,50.04,441.32,50.04z"/>
		<path class="st11" d="M339.23,116.45c-15.7,15.69-26.87,29.96-24.97,31.86c1.9,1.9,16.17-9.28,31.86-24.97
			c15.69-15.69,26.87-29.96,24.97-31.86C369.19,89.57,354.92,100.75,339.23,116.45z"/>
		<path class="st12" d="M415.09,72.52c-6.91,6.91-18.13,6.92-25.04,0c-6.92-6.92-6.91-18.13,0-25.04c6.92-6.91,18.13-6.92,25.04,0
			C422.01,54.39,422.01,65.6,415.09,72.52z"/>
		<path class="st15" d="M412.26,69.69c-5.35,5.35-14.03,5.35-19.38,0c-5.35-5.35-5.35-14.03,0-19.38c5.35-5.35,14.03-5.35,19.38,0
			C417.61,55.66,417.61,64.34,412.26,69.69z"/>
		<path class="st15" d="M402.57,73.7c-7.57,0-13.7-6.14-13.7-13.7c0-7.57,6.14-13.7,13.7-13.7c7.57,0,13.7,6.14,13.7,13.7
			C416.27,67.56,410.14,73.7,402.57,73.7z"/>
		
			<linearGradient id="SVGID_1_" gradientUnits="userSpaceOnUse" x1="1224.2761" y1="416.6143" x2="1224.2761" y2="389.2088" gradientTransform="matrix(0 1 -1 0 805.4822 -1165.4021)">
			<stop  offset="0" style="stop-color:#FFFFFF;stop-opacity:0"/>
			<stop  offset="1" style="stop-color:#FFFFFF"/>
		</linearGradient>
		<path class="st16" d="M416.22,60.98c0.02-0.33,0.05-0.65,0.05-0.99c0-1.11-0.15-2.19-0.4-3.23l-26.6,0
			c-0.25,1.04-0.4,2.12-0.4,3.23c0,0.33,0.03,0.66,0.05,0.99L416.22,60.98z"/>
		
			<linearGradient id="SVGID_00000183243138145106672550000017622926946078225078_" gradientUnits="userSpaceOnUse" x1="1231.0222" y1="416.2859" x2="1231.0222" y2="389.5373" gradientTransform="matrix(0 1 -1 0 805.4822 -1165.4021)">
			<stop  offset="0" style="stop-color:#FFFFFF;stop-opacity:0"/>
			<stop  offset="1" style="stop-color:#FFFFFF"/>
		</linearGradient>
		<path style="opacity:0.4;fill:url(#SVGID_00000183243138145106672550000017622926946078225078_);" d="M413.46,68.29
			c1.18-1.55,2.05-3.37,2.48-5.34l-26.75,0c0.44,1.97,1.3,3.79,2.48,5.34H413.46z"/>
		<path class="st18" d="M414.25,49.6c-0.36,0.36-0.93,0.36-1.29,0c-0.35-0.36-0.36-0.93,0-1.29c0.36-0.36,0.93-0.36,1.29,0
			C414.61,48.67,414.61,49.25,414.25,49.6z"/>
		<path class="st10" d="M411.17,46.93c-0.25,0.44-0.81,0.58-1.24,0.33c-0.44-0.25-0.58-0.81-0.33-1.24
			c0.25-0.43,0.81-0.59,1.25-0.33C411.27,45.94,411.42,46.49,411.17,46.93z"/>
		<path class="st10" d="M407.49,45.15c-0.13,0.49-0.63,0.78-1.12,0.65c-0.49-0.13-0.77-0.63-0.64-1.12
			c0.13-0.49,0.63-0.77,1.11-0.65C407.33,44.17,407.62,44.66,407.49,45.15z"/>
		<path class="st10" d="M403.48,44.38c0,0.5-0.41,0.91-0.91,0.91c-0.5,0-0.91-0.41-0.91-0.91c0-0.5,0.41-0.91,0.91-0.91
			C403.07,43.47,403.48,43.88,403.48,44.38z"/>
		<path class="st10" d="M399.41,44.68c0.13,0.48-0.16,0.99-0.64,1.12c-0.49,0.13-0.99-0.16-1.12-0.64
			c-0.13-0.49,0.16-0.99,0.64-1.12C398.78,43.9,399.28,44.19,399.41,44.68z"/>
		<path class="st10" d="M395.55,46.02c0.26,0.44,0.11,0.99-0.33,1.24c-0.44,0.25-0.99,0.1-1.24-0.33c-0.26-0.44-0.11-0.99,0.33-1.25
			C394.74,45.43,395.3,45.58,395.55,46.02z"/>
		<path class="st10" d="M392.17,48.31c0.36,0.35,0.36,0.93,0,1.29c-0.36,0.36-0.93,0.36-1.29,0c-0.36-0.36-0.36-0.93,0-1.29
			C391.24,47.95,391.82,47.95,392.17,48.31z"/>
		<path class="st10" d="M389.51,51.4c0.43,0.25,0.58,0.81,0.33,1.24c-0.25,0.44-0.81,0.59-1.24,0.33c-0.44-0.25-0.59-0.81-0.34-1.25
			C388.51,51.3,389.07,51.15,389.51,51.4z"/>
		<path class="st10" d="M387.72,55.07c0.49,0.13,0.78,0.63,0.65,1.12c-0.13,0.49-0.63,0.78-1.11,0.64
			c-0.49-0.13-0.78-0.63-0.65-1.11C386.74,55.23,387.24,54.94,387.72,55.07z"/>
		<path class="st10" d="M386.96,59.08c0.5,0,0.91,0.41,0.91,0.91c0,0.5-0.41,0.91-0.91,0.91c-0.51,0-0.92-0.4-0.92-0.91
			C386.04,59.49,386.45,59.08,386.96,59.08z"/>
		<path class="st10" d="M387.25,63.15c0.49-0.13,0.99,0.16,1.12,0.64c0.13,0.49-0.16,0.99-0.64,1.11c-0.49,0.14-0.99-0.15-1.12-0.64
			C386.48,63.79,386.76,63.29,387.25,63.15z"/>
		<path class="st10" d="M388.59,67.01c0.44-0.25,1-0.1,1.25,0.33c0.25,0.44,0.1,1-0.33,1.24c-0.44,0.26-0.99,0.11-1.25-0.33
			C388.01,67.82,388.15,67.26,388.59,67.01z"/>
		<path class="st18" d="M390.88,70.39c0.36-0.36,0.94-0.36,1.29,0c0.35,0.36,0.36,0.94,0,1.29c-0.35,0.36-0.93,0.36-1.29,0
			C390.53,71.33,390.53,70.75,390.88,70.39z"/>
		<path class="st18" d="M393.97,73.06c0.26-0.44,0.81-0.58,1.24-0.34c0.44,0.26,0.59,0.81,0.33,1.25c-0.25,0.44-0.81,0.59-1.25,0.34
			C393.87,74.06,393.72,73.5,393.97,73.06z"/>
		<path class="st18" d="M397.64,74.84c0.13-0.49,0.63-0.78,1.11-0.65c0.49,0.13,0.78,0.63,0.65,1.12c-0.13,0.49-0.63,0.78-1.12,0.65
			C397.81,75.83,397.52,75.33,397.64,74.84z"/>
		<path class="st18" d="M401.66,75.61c0-0.51,0.41-0.91,0.91-0.91c0.51,0,0.92,0.41,0.91,0.91c0,0.51-0.4,0.91-0.91,0.91
			C402.07,76.52,401.66,76.11,401.66,75.61z"/>
		<path class="st18" d="M405.73,75.31c-0.13-0.49,0.16-0.99,0.64-1.12c0.49-0.13,0.99,0.16,1.11,0.64c0.14,0.49-0.15,0.99-0.64,1.12
			C406.36,76.09,405.86,75.8,405.73,75.31z"/>
		<path class="st18" d="M409.58,73.97c-0.25-0.44-0.1-0.99,0.33-1.25c0.44-0.25,1-0.11,1.24,0.33c0.26,0.44,0.11,0.99-0.33,1.25
			C410.4,74.56,409.84,74.41,409.58,73.97z"/>
		<path class="st18" d="M412.96,71.68c-0.36-0.36-0.35-0.93-0.01-1.29c0.36-0.36,0.94-0.36,1.29,0c0.36,0.35,0.36,0.93,0.01,1.29
			C413.9,72.03,413.32,72.04,412.96,71.68z"/>
		<path class="st18" d="M415.64,68.59c-0.44-0.26-0.59-0.81-0.34-1.24c0.26-0.44,0.81-0.59,1.24-0.33c0.44,0.25,0.59,0.81,0.34,1.24
			C416.63,68.69,416.07,68.84,415.64,68.59z"/>
		<path class="st18" d="M417.42,64.92c-0.49-0.13-0.78-0.63-0.65-1.11c0.14-0.49,0.63-0.78,1.12-0.64c0.49,0.13,0.78,0.62,0.65,1.11
			C418.4,64.76,417.9,65.05,417.42,64.92z"/>
		<path class="st18" d="M418.18,60.91c-0.51,0-0.91-0.41-0.92-0.9c0.01-0.51,0.41-0.92,0.91-0.91c0.51-0.01,0.91,0.4,0.91,0.91
			C419.09,60.5,418.69,60.9,418.18,60.91z"/>
		<path class="st18" d="M417.89,56.84c-0.49,0.13-0.99-0.16-1.12-0.64c-0.13-0.49,0.16-1,0.65-1.12c0.49-0.13,0.99,0.15,1.12,0.64
			C418.66,56.2,418.37,56.7,417.89,56.84z"/>
		<path class="st18" d="M416.55,52.98c-0.44,0.25-1,0.1-1.25-0.33c-0.25-0.44-0.1-1,0.34-1.25c0.44-0.26,0.99-0.11,1.24,0.33
			C417.13,52.17,416.98,52.72,416.55,52.98z"/>
		<g class="st19">
			<path class="st4" d="M445.25,38.67c-0.09,0.38-0.19,0.75-0.29,1.14C445.06,39.43,445.15,39.05,445.25,38.67z"/>
			<path class="st4" d="M445.76,36.32c-0.06,0.35-0.14,0.71-0.22,1.06C445.62,37.02,445.69,36.67,445.76,36.32z"/>
			<path class="st4" d="M395.05,113.08c22.05-22.05,38.45-44.99,46.26-63.04c-0.04-0.01-4.44-1.48-15.8-12.82l-10.34,10.34
				c6.83,6.92,6.8,18.06-0.08,24.95c-0.15,0.15-0.31,0.27-0.46,0.42c-0.14,0.15-0.27,0.31-0.42,0.46
				c-6.89,6.88-18.03,6.91-24.95,0.08l-18.11,18.11c1.48,2.24-9.58,16.3-25.04,31.76c-5.55,5.55-10.91,10.52-15.61,14.56
				l11.86,11.86l2.84,2.84c0.94-0.54,1.88-1.11,2.84-1.69c13.74-8.36,28.99-20.27,43.95-34.83
				C393.02,115.1,394.03,114.09,395.05,113.08z"/>
			<path class="st4" d="M446.12,34.07c-0.04,0.31-0.09,0.63-0.14,0.94C446.03,34.69,446.09,34.38,446.12,34.07z"/>
			<path class="st4" d="M442.76,46.49c-0.29,0.75-0.59,1.52-0.92,2.3C442.16,48.01,442.47,47.25,442.76,46.49z"/>
			<path class="st4" d="M443.77,43.69c-0.14,0.41-0.27,0.81-0.42,1.23C443.5,44.51,443.63,44.1,443.77,43.69z"/>
			<path class="st4" d="M444.58,41.13c-0.12,0.4-0.23,0.79-0.36,1.19C444.35,41.92,444.46,41.53,444.58,41.13z"/>
			<path class="st4" d="M443.88,21.06c0.09,0.13,0.17,0.26,0.26,0.4C444.05,21.33,443.97,21.19,443.88,21.06z"/>
			<path class="st4" d="M445.37,23.9c0.08,0.2,0.15,0.41,0.21,0.61C445.52,24.3,445.45,24.1,445.37,23.9z"/>
			<path class="st4" d="M446.37,29.41c0,0.17,0.02,0.33,0.02,0.5C446.39,29.74,446.38,29.58,446.37,29.41z"/>
			<path class="st4" d="M444.71,22.41c0.09,0.17,0.17,0.35,0.26,0.53C444.88,22.76,444.8,22.58,444.71,22.41z"/>
			<path class="st4" d="M446.2,27.33c0.03,0.22,0.06,0.43,0.09,0.66C446.27,27.77,446.23,27.55,446.2,27.33z"/>
			<path class="st4" d="M445.87,25.53c0.05,0.22,0.11,0.43,0.15,0.66C445.98,25.97,445.92,25.75,445.87,25.53z"/>
			<path class="st4" d="M446.34,31.92c-0.01,0.23-0.04,0.46-0.06,0.69C446.3,32.39,446.33,32.15,446.34,31.92z"/>
			<path class="st14" d="M414.22,73.39c0.15-0.15,0.28-0.31,0.42-0.46c-6.91,6.45-17.72,6.35-24.49-0.33l-0.88,0.88
				C396.19,80.3,407.33,80.28,414.22,73.39z"/>
			<path class="st13" d="M441.32,50.04c0.19-0.42,0.35-0.84,0.52-1.25c0.32-0.78,0.63-1.54,0.92-2.3c0.2-0.53,0.41-1.05,0.59-1.57
				c0.15-0.42,0.28-0.82,0.42-1.23c0.15-0.46,0.31-0.92,0.45-1.37c0.13-0.4,0.24-0.8,0.36-1.19c0.13-0.44,0.26-0.89,0.37-1.32
				c0.1-0.38,0.2-0.76,0.29-1.14c0.1-0.44,0.2-0.87,0.29-1.3c0.08-0.36,0.15-0.71,0.22-1.06c0.08-0.44,0.15-0.88,0.22-1.31
				c0.05-0.32,0.1-0.63,0.14-0.94c0.06-0.49,0.11-0.97,0.15-1.45c0.02-0.23,0.05-0.47,0.06-0.69c0.04-0.69,0.06-1.36,0.06-2.01
				c0-0.17-0.02-0.34-0.02-0.5c-0.02-0.48-0.04-0.96-0.08-1.42c-0.02-0.22-0.06-0.44-0.09-0.66c-0.05-0.39-0.11-0.77-0.18-1.14
				c-0.04-0.23-0.1-0.44-0.15-0.66c-0.08-0.35-0.18-0.69-0.28-1.02c-0.07-0.21-0.14-0.41-0.21-0.61c-0.12-0.33-0.26-0.65-0.4-0.96
				c-0.08-0.18-0.17-0.36-0.26-0.53c-0.17-0.33-0.37-0.64-0.57-0.95c-0.09-0.13-0.17-0.27-0.26-0.4c-0.31-0.42-0.64-0.83-1.01-1.2v0
				l-17.36,17.36C436.87,48.56,441.28,50.03,441.32,50.04L441.32,50.04z"/>
			<path class="st13" d="M346.12,123.34c15.45-15.45,26.52-29.52,25.04-31.76l-43.05,43.05l-0.44,0.44l-3.55,3.55l-9.76,9.76
				c1.21,0.8,5.84-2.04,12.27-7.25l12.18,12.18l3.55-3.55l-11.86-11.86C335.21,133.86,340.58,128.89,346.12,123.34z"/>
			<path class="st13" d="M414.63,72.93c0.15-0.14,0.31-0.27,0.46-0.42c6.89-6.89,6.91-18.03,0.08-24.95l-0.88,0.88l-1.95,1.96
				c5.26,5.36,5.24,13.97-0.08,19.29s-13.93,5.34-19.29,0.08l-2.83,2.83C396.92,79.28,407.72,79.38,414.63,72.93z M410.83,74.31
				c-0.43,0.25-0.99,0.1-1.24-0.33c-0.25-0.44-0.1-0.99,0.33-1.25c0.44-0.25,1-0.11,1.24,0.33
				C411.42,73.5,411.27,74.05,410.83,74.31z M416.54,67.02c0.44,0.25,0.59,0.81,0.34,1.24c-0.25,0.43-0.8,0.58-1.24,0.33
				c-0.44-0.26-0.59-0.81-0.34-1.24C415.55,66.91,416.11,66.76,416.54,67.02z M412.96,71.68c-0.36-0.36-0.35-0.93-0.01-1.29
				c0.36-0.36,0.94-0.36,1.29,0c0.36,0.35,0.36,0.93,0.01,1.29C413.9,72.03,413.32,72.04,412.96,71.68z M416.55,52.98
				c-0.44,0.25-1,0.1-1.25-0.33c-0.25-0.44-0.1-1,0.34-1.25c0.44-0.26,0.99-0.11,1.24,0.33C417.13,52.17,416.98,52.72,416.55,52.98z
				 M417.89,56.84c-0.49,0.13-0.99-0.16-1.12-0.64c-0.13-0.49,0.16-1,0.65-1.12c0.49-0.13,0.99,0.15,1.12,0.64
				C418.66,56.2,418.37,56.7,417.89,56.84z M418.18,60.91c-0.51,0-0.91-0.41-0.92-0.9c0.01-0.51,0.41-0.92,0.91-0.91
				c0.51-0.01,0.91,0.4,0.91,0.91C419.09,60.5,418.69,60.9,418.18,60.91z M416.76,63.81c0.14-0.49,0.63-0.78,1.12-0.64
				c0.49,0.13,0.78,0.62,0.65,1.11c-0.13,0.48-0.63,0.77-1.11,0.64C416.92,64.79,416.64,64.29,416.76,63.81z M406.37,74.19
				c0.49-0.13,0.99,0.16,1.11,0.64c0.14,0.49-0.15,0.99-0.64,1.12c-0.48,0.13-0.98-0.16-1.11-0.64
				C405.6,74.82,405.88,74.33,406.37,74.19z M394.3,74.31c-0.43-0.25-0.58-0.81-0.33-1.25c0.26-0.44,0.81-0.58,1.24-0.34
				c0.44,0.26,0.59,0.81,0.33,1.25C395.3,74.41,394.74,74.56,394.3,74.31z M398.29,75.96c-0.48-0.13-0.77-0.63-0.65-1.12
				c0.13-0.49,0.63-0.78,1.11-0.65c0.49,0.13,0.78,0.63,0.65,1.12C399.28,75.8,398.78,76.09,398.29,75.96z M402.56,76.52
				c-0.5,0-0.91-0.41-0.91-0.91c0-0.51,0.41-0.91,0.91-0.91c0.51,0,0.92,0.41,0.91,0.91C403.48,76.11,403.07,76.52,402.56,76.52z"/>
			<path class="st15" d="M412.26,69.69c5.32-5.32,5.34-13.93,0.08-19.29l-19.37,19.37C398.33,75.03,406.94,75.01,412.26,69.69z"/>
			<path class="st18" d="M395.21,72.72c-0.43-0.25-0.99-0.1-1.24,0.34c-0.25,0.44-0.1,0.99,0.33,1.25c0.44,0.25,1,0.1,1.25-0.34
				C395.8,73.54,395.65,72.98,395.21,72.72z"/>
			<path class="st18" d="M398.76,74.19c-0.48-0.13-0.98,0.16-1.11,0.65c-0.13,0.49,0.17,0.99,0.65,1.12
				c0.49,0.13,0.99-0.16,1.12-0.65C399.54,74.83,399.25,74.33,398.76,74.19z"/>
			<path class="st18" d="M402.56,74.69c-0.5,0-0.91,0.41-0.91,0.91c0,0.5,0.41,0.91,0.91,0.91c0.51,0,0.91-0.41,0.91-0.91
				C403.48,75.1,403.07,74.7,402.56,74.69z"/>
			<path class="st18" d="M405.73,75.31c0.13,0.48,0.63,0.77,1.11,0.64c0.49-0.13,0.78-0.63,0.64-1.12
				c-0.12-0.49-0.63-0.77-1.11-0.64C405.88,74.33,405.6,74.82,405.73,75.31z"/>
			<path class="st18" d="M411.16,73.06c-0.24-0.44-0.81-0.58-1.24-0.33c-0.43,0.25-0.58,0.81-0.33,1.25
				c0.26,0.43,0.81,0.58,1.24,0.33C411.27,74.05,411.42,73.5,411.16,73.06z"/>
			<path class="st18" d="M414.25,70.39c-0.35-0.36-0.93-0.35-1.29,0c-0.35,0.35-0.35,0.93,0.01,1.29c0.36,0.35,0.94,0.35,1.29,0
				C414.61,71.33,414.61,70.75,414.25,70.39z"/>
			<path class="st18" d="M415.64,68.59c0.44,0.25,0.99,0.1,1.24-0.33c0.26-0.44,0.11-0.99-0.34-1.24c-0.43-0.26-0.99-0.1-1.24,0.33
				C415.05,67.78,415.2,68.34,415.64,68.59z"/>
			<path class="st18" d="M418.53,64.27c0.13-0.49-0.15-0.99-0.65-1.11c-0.48-0.14-0.98,0.15-1.12,0.64
				c-0.12,0.48,0.16,0.98,0.65,1.11C417.9,65.05,418.4,64.76,418.53,64.27z"/>
			<path class="st18" d="M418.18,59.09c-0.5-0.01-0.91,0.41-0.91,0.91c0.01,0.5,0.41,0.9,0.92,0.9c0.5,0,0.91-0.41,0.91-0.91
				C419.09,59.49,418.69,59.09,418.18,59.09z"/>
			<path class="st18" d="M418.53,55.72c-0.13-0.49-0.63-0.77-1.12-0.64c-0.49,0.12-0.77,0.63-0.65,1.12
				c0.13,0.48,0.63,0.77,1.12,0.64C418.37,56.7,418.66,56.2,418.53,55.72z"/>
			<path class="st18" d="M416.88,51.74c-0.25-0.44-0.81-0.58-1.24-0.33c-0.44,0.24-0.59,0.8-0.34,1.25
				c0.25,0.43,0.81,0.58,1.25,0.33C416.98,52.72,417.13,52.17,416.88,51.74z"/>
		</g>
	</g>
	<path class="st4" d="M196.24,213.19c0-8.41-6.82-15.23-15.23-15.23c-2.69,0-5.22,0.71-7.41,1.93c-3.87-2.43-8.43-3.86-13.34-3.86
		c-0.57,0-1.12,0.05-1.68,0.09c-4.32-17.78-20.33-30.99-39.44-30.99c-15.66,0-29.24,8.87-36.01,21.86c-1.5-0.23-3.02-0.39-4.58-0.39
		c-16.49,0-29.86,13.37-29.86,29.86c0,16.49,13.37,29.86,29.86,29.86c7.03,0,13.47-2.44,18.57-6.5c6.35,4.11,13.9,6.5,22.03,6.5
		c8.68,0,16.73-2.74,23.33-7.38c4.55,4.56,10.84,7.38,17.8,7.38c11.51,0,21.2-7.75,24.18-18.3
		C191.2,226.46,196.24,220.42,196.24,213.19z"/>
	<path class="st4" d="M265.8,126.46c2.65-4.85,4.17-10.43,4.17-16.35c0-18.85-15.28-34.12-34.12-34.12
		c-18.1,0-32.9,14.1-34.05,31.91c-1.42-0.24-2.86-0.39-4.35-0.39c-14.47,0-26.19,11.73-26.19,26.19c0,14.47,11.73,26.19,26.19,26.19
		c4.56,0,8.85-1.17,12.59-3.22c5.54,2.02,12.49,3.22,20.06,3.22c4.56,0,8.89-0.44,12.83-1.22c3.14,2.1,6.91,3.32,10.96,3.32
		c10.92,0,19.77-8.85,19.77-19.77C273.66,135.78,270.57,130.07,265.8,126.46z"/>
	<path class="st4" d="M529.3,191.32c-1.54,0-3.04,0.16-4.5,0.43c-2.58-12.51-13.66-21.91-26.93-21.91
		c-14.53,0-26.39,11.27-27.4,25.54c-3.85-2.56-8.48-4.06-13.46-4.06c-13.45,0-24.36,10.91-24.36,24.36
		c0,13.45,10.91,24.36,24.36,24.36c5.12,0,9.87-1.59,13.8-4.29c2.17,11.83,12.51,20.79,24.97,20.79c11.56,0,21.3-7.73,24.38-18.29
		c2.83,1.15,5.91,1.79,9.15,1.79c13.45,0,24.36-10.91,24.36-24.36C553.66,202.23,542.75,191.32,529.3,191.32z"/>
</g>
</svg>
