<?xml version="1.0" encoding="utf-8"?>
<!-- Generator: Adobe Illustrator 27.7.0, SVG Export Plug-In . SVG Version: 6.00 Build 0)  -->
<svg version="1.1" id="Capa_1" xmlns="http://www.w3.org/2000/svg" xmlns:xlink="http://www.w3.org/1999/xlink" x="0px" y="0px"
	 viewBox="0 0 500 202.69" style="enable-background:new 0 0 500 202.69;" xml:space="preserve">
<style type="text/css">
	.st0{clip-path:url(#SVGID_00000003786564761445832270000006960449339290702745_);}
	.st1{fill-rule:evenodd;clip-rule:evenodd;fill:#020202;}
	.st2{fill:#DB240B;}
	.st3{fill:#020202;}
	.st4{fill-rule:evenodd;clip-rule:evenodd;fill:#DB240B;}
</style>
<g>
	<g>
		<defs>
			<rect id="SVGID_1_" x="5.35" y="5.45" width="487.1" height="191.51"/>
		</defs>
		<clipPath id="SVGID_00000150796878859702973300000017173961256059680180_">
			<use xlink:href="#SVGID_1_"  style="overflow:visible;"/>
		</clipPath>
		<g style="clip-path:url(#SVGID_00000150796878859702973300000017173961256059680180_);">
			<path class="st1" d="M148.97,8.58c0.53-1.08,0.09-2.38-0.99-2.91c-1.08-0.53-2.38-0.09-2.91,0.99l-19.77,40.05
				c-30.65-17.39-70.3-13.03-96.43,13.1c-31.37,31.37-31.37,82.24,0,113.61c31.37,31.37,82.24,31.37,113.61,0
				c26.21-26.21,30.52-66.02,12.94-96.71l39.97-19.73c1.08-0.53,1.52-1.83,0.99-2.91c-0.53-1.08-1.83-1.52-2.91-0.99l-36.65,18.09
				c1.32-2.86,1.92-5.96,1.79-9.05l17.49-12.66c0.97-0.7,1.19-2.06,0.49-3.03c-0.7-0.97-2.06-1.19-3.03-0.49l-15.74,11.39
				c-0.7-2.35-1.85-4.59-3.45-6.59l16.67-16.67c0.85-0.85,0.85-2.22,0-3.07c-0.85-0.85-2.22-0.85-3.07,0L151.3,47.7
				c-2-1.6-4.24-2.75-6.59-3.46l11.39-15.74c0.7-0.97,0.48-2.33-0.49-3.03c-0.97-0.7-2.33-0.49-3.03,0.49l-12.66,17.49
				c-3.08-0.13-6.19,0.47-9.05,1.79L148.97,8.58z M149.2,79.8l-1.59,0.78c-0.1,0.05-0.2,0.09-0.3,0.12
				c-7.22,3.34-16.07,2.03-22.02-3.92c-5.96-5.96-7.26-14.8-3.92-22.02c0.03-0.1,0.07-0.2,0.12-0.3l0.74-1.51
				C94.18,36.83,57.76,40.76,33.8,64.73c-28.66,28.66-28.66,75.13,0,103.79s75.13,28.66,103.79,0
				C161.63,144.47,165.51,107.88,149.2,79.8z M128.36,52.22c5.94-5.94,15.56-5.94,21.49,0s5.94,15.56,0,21.49
				c-5.94,5.94-15.56,5.94-21.49,0C122.42,67.78,122.42,58.15,128.36,52.22z"/>
			<path class="st2" d="M325.9,46.55h-5.81l-5.56-14.92c0.18,1.46,0.32,2.76,0.42,3.89c0.11,1.11,0.17,2.44,0.17,3.97v7.06h-4.06
				V27.29h5.67l5.7,14.95c-0.41-2.54-0.61-4.93-0.61-7.17v-7.78h4.09V46.55z"/>
			<path class="st2" d="M346.58,46.55l-1-4.14h-5.61L339,46.55h-4.72l5.81-19.26h5.53l5.81,19.26H346.58z M340.75,39.1h4.06
				l-2.03-8.5L340.75,39.1z"/>
			<path class="st2" d="M365.98,26.81c1.45,0,2.7,0.2,3.75,0.61c1.08,0.41,2.05,1.03,2.92,1.86l-2.11,2.47
				c-1.31-1.07-2.72-1.61-4.22-1.61c-0.8,0-1.43,0.17-1.89,0.5c-0.46,0.32-0.69,0.78-0.69,1.39c0,0.43,0.1,0.78,0.31,1.06
				c0.2,0.26,0.57,0.51,1.08,0.75c0.52,0.24,1.3,0.53,2.33,0.86c1.96,0.63,3.41,1.41,4.34,2.33c0.93,0.91,1.39,2.2,1.39,3.89
				c0,1.2-0.31,2.27-0.92,3.2c-0.61,0.91-1.49,1.62-2.64,2.14c-1.15,0.5-2.51,0.75-4.09,0.75c-1.57,0-2.97-0.25-4.2-0.75
				c-1.2-0.5-2.24-1.17-3.11-2l2.31-2.53c0.74,0.63,1.5,1.1,2.28,1.42c0.8,0.32,1.66,0.47,2.58,0.47c0.94,0,1.69-0.2,2.22-0.61
				c0.56-0.43,0.83-1.01,0.83-1.75c0-0.48-0.1-0.88-0.31-1.2c-0.2-0.33-0.56-0.63-1.06-0.89c-0.5-0.26-1.22-0.54-2.17-0.83
				c-2.13-0.65-3.65-1.45-4.56-2.39c-0.89-0.94-1.33-2.14-1.33-3.59c0-1.11,0.3-2.08,0.89-2.92c0.59-0.85,1.42-1.5,2.47-1.95
				C363.45,27.05,364.64,26.81,365.98,26.81z"/>
			<path class="st2" d="M392.64,46.55l-1-4.14h-5.61l-0.97,4.14h-4.72l5.81-19.26h5.53l5.81,19.26H392.64z M386.81,39.1h4.06
				l-2.03-8.5L386.81,39.1z"/>
			<path class="st3" d="M226.87,127.15c0,3.56-1.37,5.56-4.74,5.56c-3.83,0-5.02-2.55-5.02-6.57v-14.96h-6.66v15.96
				c0,8.12,3.56,12.4,11.76,12.4c8.3,0,11.58-4.47,11.58-12.4v-10.76c0-6.57-0.82-8.85-3.28-11.95c-2.83-3.56-8.12-7.93-11.4-12.22
				c-1.37-1.73-1.64-2.64-1.64-5.84V75.26c0-3.56,1.64-5.38,4.83-5.38c3.74,0,4.74,2.55,4.74,6.29v12.77h6.47V75.26
				c0-8.3-3.01-12.4-11.13-12.4c-8.03,0-11.95,4.01-11.95,12.4v11.22c0,5.02,0.18,6.84,2.46,9.76c2.64,3.37,7.84,7.75,11.67,12.49
				c1.82,2.28,2.28,3.19,2.28,7.75V127.15z"/>
			<path class="st3" d="M259.57,89.76c0,4.65-1.92,6.57-5.93,6.57h-4.83V70.7h4.74c4.38,0,6.02,2.1,6.02,6.57V89.76z M248.81,138.73
				v-35.66h4.83c8.75,0,12.77-4.01,12.77-13.5V77.26c0-9.48-4.1-13.59-12.86-13.59h-11.67v75.05H248.81z"/>
			<path class="st3" d="M295.11,138.73l-9.76-75.05h-8.12l-10.3,75.05h6.75l1.64-12.58h11.22l1.64,12.58H295.11z M276.14,119.76
				c1.73-12.86,3.37-25.26,4.92-38.48c1.46,13.22,3.1,25.63,4.65,38.48H276.14z"/>
			<path class="st3" d="M316.75,126.78c0,4.01-1.28,5.93-4.65,5.93c-3.28,0-4.92-2.01-4.92-5.93V75.71c0-3.92,1.64-5.84,4.92-5.84
				c3.56,0,4.65,1.82,4.65,5.84v13.22h6.29V75.62c0-8.48-3.65-12.77-10.94-12.77c-7.93,0-11.95,4.29-11.95,12.95v51.07
				c0,8.48,4.01,12.68,11.95,12.68c7.66,0,10.94-4.1,10.94-12.86v-15.5h-6.29V126.78z"/>
			<path class="st3" d="M351.46,138.73v-6.84h-13.41v-27.91h9.12v-6.93h-9.12V70.7H351v-7.02h-19.88v75.05H351.46z"/>
			<path class="st3" d="M399.61,138.73l-9.76-75.05h-8.12l-10.3,75.05h6.75l1.64-12.58h11.22l1.64,12.58H399.61z M380.64,119.76
				c1.73-12.86,3.37-25.26,4.92-38.48c1.46,13.22,3.1,25.63,4.65,38.48H380.64z"/>
			<path class="st3" d="M424.22,89.76c0,4.65-1.92,6.57-5.93,6.57h-4.83V70.7h4.74c4.38,0,6.02,2.1,6.02,6.57V89.76z M413.46,138.73
				v-35.66h4.83c8.75,0,12.77-4.01,12.77-13.5V77.26c0-9.48-4.1-13.59-12.86-13.59h-11.67v75.05H413.46z"/>
			<path class="st3" d="M455.89,89.76c0,4.65-1.92,6.57-5.93,6.57h-4.83V70.7h4.74c4.38,0,6.02,2.1,6.02,6.57V89.76z M445.13,138.73
				v-35.66h4.83c8.75,0,12.77-4.01,12.77-13.5V77.26c0-9.48-4.1-13.59-12.86-13.59H438.2v75.05H445.13z"/>
			<path class="st3" d="M486,127.15c0,3.56-1.37,5.56-4.74,5.56c-3.83,0-5.02-2.55-5.02-6.57v-14.96h-6.66v15.96
				c0,8.12,3.56,12.4,11.76,12.4c8.3,0,11.58-4.47,11.58-12.4v-10.76c0-6.57-0.82-8.85-3.28-11.95c-2.83-3.56-8.12-7.93-11.4-12.22
				c-1.37-1.73-1.64-2.64-1.64-5.84V75.26c0-3.56,1.64-5.38,4.83-5.38c3.74,0,4.74,2.55,4.74,6.29v12.77h6.47V75.26
				c0-8.3-3.01-12.4-11.13-12.4c-8.03,0-11.95,4.01-11.95,12.4v11.22c0,5.02,0.18,6.84,2.46,9.76c2.64,3.37,7.84,7.75,11.67,12.49
				c1.82,2.28,2.28,3.19,2.28,7.75V127.15z"/>
		</g>
	</g>
	<g>
		<g>
			<path class="st3" d="M314.12,172.34l-2.35,2.77c-0.5-0.36-0.98-0.64-1.45-0.84c-0.47-0.2-0.97-0.3-1.5-0.3
				c-1.01,0-1.79,0.45-2.34,1.36c-0.55,0.91-0.83,2.25-0.83,4.04s0.28,3.12,0.84,4c0.56,0.88,1.36,1.32,2.4,1.32
				c0.56,0,1.09-0.12,1.57-0.35c0.49-0.23,1.03-0.58,1.62-1.04l2.23,2.82c-0.69,0.69-1.53,1.27-2.51,1.72
				c-0.98,0.45-2.04,0.68-3.16,0.68c-1.7,0-3.17-0.35-4.41-1.05c-1.24-0.7-2.2-1.74-2.87-3.11c-0.68-1.37-1.02-3.04-1.02-5
				c0-1.88,0.35-3.51,1.04-4.87c0.69-1.36,1.66-2.4,2.9-3.12c1.24-0.72,2.67-1.08,4.29-1.08
				C310.7,170.31,312.55,170.99,314.12,172.34z"/>
			<path class="st3" d="M324.42,188.05v-6.96h-3.94v6.96h-5.1v-17.24h5.1v6.37h3.94v-6.37h5.1v17.24H324.42z"/>
			<path class="st3" d="M336.76,170.81v17.24h-5.1v-17.24H336.76z"/>
			<path class="st3" d="M347.93,188.05v-6.96h-3.94v6.96h-5.1v-17.24h5.1v6.37h3.94v-6.37h5.1v17.24H347.93z"/>
			<path class="st3" d="M369.23,182.2c0,1.2-0.26,2.29-0.79,3.24c-0.53,0.96-1.33,1.71-2.4,2.27c-1.07,0.55-2.4,0.83-3.96,0.83
				c-2.36,0-4.14-0.57-5.35-1.71c-1.21-1.14-1.81-2.68-1.81-4.63v-11.4h5.1v11.25c0,0.98,0.16,1.69,0.48,2.14
				c0.32,0.45,0.85,0.68,1.57,0.68c0.73,0,1.25-0.23,1.57-0.68c0.32-0.45,0.48-1.17,0.48-2.14v-11.25h5.1V182.2z"/>
			<path class="st3" d="M379.91,188.05l-0.67-3.34h-4.09l-0.64,3.34h-5.33l5.03-17.24h6.09l5,17.24H379.91z M375.87,181.14h2.65
				l-1.34-6.76L375.87,181.14z"/>
			<path class="st3" d="M394.8,188.05v-6.96h-3.94v6.96h-5.1v-17.24h5.1v6.37h3.94v-6.37h5.1v17.24H394.8z"/>
			<path class="st3" d="M416.1,182.2c0,1.2-0.26,2.29-0.79,3.24c-0.53,0.96-1.33,1.71-2.4,2.27c-1.07,0.55-2.4,0.83-3.96,0.83
				c-2.36,0-4.14-0.57-5.35-1.71c-1.21-1.14-1.81-2.68-1.81-4.63v-11.4h5.1v11.25c0,0.98,0.16,1.69,0.48,2.14
				c0.32,0.45,0.85,0.68,1.57,0.68c0.73,0,1.25-0.23,1.57-0.68c0.32-0.45,0.48-1.17,0.48-2.14v-11.25h5.1V182.2z"/>
			<path class="st3" d="M426.78,188.05l-0.67-3.34h-4.09l-0.64,3.34h-5.33l5.03-17.24h6.09l5,17.24H426.78z M422.74,181.14h2.65
				l-1.34-6.76L422.74,181.14z"/>
		</g>
		<g>
			<path class="st4" d="M272.62,189.59l-5.89-6.84c-1.65-1.92-2.33-4.54-1.66-6.98c0.2-0.71,0.5-1.44,0.96-2.17
				c0.56-0.89,1.23-1.58,1.92-2.11c2.83-2.17,6.86-2.06,9.62,0.19c0.58,0.48,1.15,1.07,1.64,1.8c0.09,0.14,0.18,0.27,0.26,0.41
				c1.71,2.84,1.25,6.49-0.94,8.98L272.62,189.59z"/>
		</g>
	</g>
</g>
</svg>
