<?xml version="1.0" encoding="utf-8"?>
<!-- Generator: Adobe Illustrator 27.7.0, SVG Export Plug-In . SVG Version: 6.00 Build 0)  -->
<svg version="1.1" id="Capa_1" xmlns="http://www.w3.org/2000/svg" xmlns:xlink="http://www.w3.org/1999/xlink" x="0px" y="0px"
	 viewBox="0 0 210.24 112.32" style="enable-background:new 0 0 210.24 112.32;" xml:space="preserve">
<style type="text/css">
	.st0{fill:#1B1F3B;}
	.st1{fill:#FFFFFF;}
</style>
<g>
	<g>
		<circle class="st0" cx="154.15" cy="55.54" r="34.18"/>
		<g>
			<g>
				<path class="st1" d="M154.15,37.9c5.75,0,6.43,0.02,8.7,0.13c2.1,0.1,3.24,0.45,4,0.74c1,0.39,1.72,0.86,2.47,1.61
					c0.75,0.75,1.22,1.47,1.61,2.47c0.29,0.76,0.65,1.9,0.74,4c0.1,2.27,0.13,2.95,0.13,8.7s-0.02,6.43-0.13,8.7
					c-0.1,2.1-0.45,3.24-0.74,4c-0.39,1-0.86,1.72-1.61,2.47c-0.75,0.75-1.47,1.22-2.47,1.61c-0.76,0.29-1.9,0.65-4,0.74
					c-2.27,0.1-2.95,0.13-8.7,0.13c-5.75,0-6.43-0.02-8.7-0.13c-2.1-0.1-3.24-0.45-4-0.74c-1-0.39-1.72-0.86-2.47-1.61
					c-0.75-0.75-1.22-1.47-1.61-2.47c-0.29-0.76-0.65-1.9-0.74-4c-0.1-2.27-0.13-2.95-0.13-8.7s0.02-6.43,0.13-8.7
					c0.1-2.1,0.45-3.24,0.74-4c0.39-1,0.86-1.72,1.61-2.47c0.75-0.75,1.47-1.22,2.47-1.61c0.76-0.29,1.9-0.65,4-0.74
					C147.72,37.92,148.4,37.9,154.15,37.9 M154.15,34.02c-5.85,0-6.58,0.02-8.87,0.13c-2.29,0.1-3.86,0.47-5.22,1
					c-1.42,0.55-2.62,1.29-3.81,2.48c-1.2,1.2-1.93,2.4-2.48,3.81c-0.53,1.37-0.9,2.93-1,5.22c-0.1,2.3-0.13,3.03-0.13,8.87
					c0,5.85,0.02,6.58,0.13,8.87c0.1,2.29,0.47,3.86,1,5.22c0.55,1.42,1.29,2.62,2.48,3.81c1.2,1.2,2.4,1.93,3.81,2.48
					c1.37,0.53,2.93,0.9,5.22,1c2.3,0.1,3.03,0.13,8.87,0.13c5.85,0,6.58-0.02,8.87-0.13c2.29-0.1,3.86-0.47,5.22-1
					c1.42-0.55,2.62-1.29,3.81-2.48c1.2-1.2,1.93-2.4,2.48-3.81c0.53-1.37,0.9-2.93,1-5.22c0.1-2.3,0.13-3.03,0.13-8.87
					s-0.02-6.58-0.13-8.87c-0.1-2.29-0.47-3.86-1-5.22c-0.55-1.42-1.29-2.62-2.48-3.81c-1.2-1.2-2.4-1.93-3.81-2.48
					c-1.37-0.53-2.93-0.9-5.22-1C160.73,34.04,160,34.02,154.15,34.02L154.15,34.02z"/>
				<path class="st1" d="M154.15,44.49c-6.1,0-11.05,4.95-11.05,11.05s4.95,11.05,11.05,11.05c6.1,0,11.05-4.95,11.05-11.05
					S160.26,44.49,154.15,44.49z M154.15,62.72c-3.96,0-7.17-3.21-7.17-7.17s3.21-7.17,7.17-7.17s7.17,3.21,7.17,7.17
					S158.11,62.72,154.15,62.72z"/>
				<circle class="st1" cx="165.64" cy="44.05" r="2.58"/>
			</g>
		</g>
	</g>
	<g>
		<path class="st0" d="M98.91,55.34c0-18.88-15.31-34.18-34.18-34.18S30.54,36.46,30.54,55.34c0,17.06,12.5,31.21,28.84,33.77V65.22
			h-8.68v-9.88h8.68V47.8c0-8.57,5.1-13.3,12.91-13.3c3.74,0,7.65,0.67,7.65,0.67v8.41h-4.31c-4.25,0-5.57,2.64-5.57,5.34v6.41h9.48
			l-1.52,9.88h-7.97v23.89C86.41,86.54,98.91,72.4,98.91,55.34z"/>
		<path class="st1" d="M78.04,65.22l1.52-9.88h-9.48v-6.41c0-2.7,1.32-5.34,5.57-5.34h4.31v-8.41c0,0-3.91-0.67-7.65-0.67
			c-7.81,0-12.91,4.73-12.91,13.3v7.53h-8.68v9.88h8.68v23.89c1.74,0.27,3.52,0.42,5.34,0.42c1.82,0,3.6-0.14,5.34-0.42V65.22H78.04
			z"/>
	</g>
</g>
</svg>
