<svg width="2476" height="2476" xmlns="http://www.w3.org/2000/svg" xmlns:xlink="http://www.w3.org/1999/xlink" xml:space="preserve" overflow="hidden"><g transform="translate(-3162 -204)"><path d="M3458.68 1077.36C3461.04 1079.7 3462.5 1082.94 3462.51 1086.51 3462.52 1093.68 3456.71 1099.51 3449.54 1099.53L3444.92 1099.44 3440.54 1099.28C3433.39 1098.89 3427.92 1092.76 3428.32 1085.61 3428.72 1078.47 3434.85 1072.99 3442.01 1073.39L3445.66 1073.57 3449.49 1073.57C3453.07 1073.57 3456.32 1075.01 3458.68 1077.36ZM3620.83 1130.69C3622.21 1133.72 3622.42 1137.27 3621.16 1140.61 3619.04 1146.21 3616.58 1151.1 3613.85 1155.05 3610.55 1159.85 3606.72 1163.46 3602.49 1165.59 3580.67 1176.58 3568.42 1167.05 3561.59 1154.15 3553.31 1164.74 3544.04 1172.84 3534.82 1177.78 3526.38 1182.29 3517.75 1184.38 3509.59 1183.61 3500.62 1182.77 3492.54 1178.67 3486.1 1170.91 3478 1161.13 3472.85 1145.29 3472.74 1122.48 3472.71 1115.29 3478.52 1109.42 3485.71 1109.39 3492.9 1109.35 3498.76 1115.15 3498.8 1122.33 3498.88 1138.71 3501.69 1149 3506.1 1154.33 3507.83 1156.42 3509.87 1157.5 3512.05 1157.71 3515.05 1157.99 3518.64 1156.99 3522.55 1154.91 3533.89 1148.84 3545.78 1134.99 3554.17 1116.02 3556.07 1111.78 3560.18 1108.7 3565.14 1108.34 3572.28 1107.83 3578.51 1113.19 3579.02 1120.35 3579.02 1120.41 3580.76 1147.47 3590.79 1142.42 3591.05 1142.29 3591.65 1141.57 3592.48 1140.35 3593.98 1138.17 3595.46 1135.17 3596.85 1131.47 3599.38 1124.76 3606.89 1121.37 3613.59 1123.89 3616.94 1125.16 3619.47 1127.67 3620.83 1130.69ZM3627.32 983.889 3559.22 945.114 3551.26 960.44 3581.1 989.96 3610.94 1019.48 3645.01 1001.38ZM3857.44 918.941C3826.12 950.004 3792.12 979.786 3756.22 1006.34 3763.54 1024.04 3768.32 1042.7 3770.52 1061.67 3771.62 1071.28 3772.08 1080.98 3771.9 1090.65 3778.81 1084.54 3785.47 1078.09 3791.79 1071.28 3799.11 1063.39 3805.96 1055.09 3812.3 1046.46 3818.77 1037.63 3824.51 1028.78 3829.48 1019.99 3842.01 997.836 3850.47 975.126 3854.61 953.4 3856.88 941.503 3857.83 929.935 3857.44 918.941ZM3649.44 713.053C3638.39 712.753 3626.74 713.824 3614.79 716.225 3593.07 720.585 3570.43 729.274 3548.39 742.014 3539.65 747.07 3530.84 752.887 3522.08 759.45 3513.51 765.872 3505.26 772.799 3497.44 780.2 3490.7 786.583 3484.3 793.295 3478.26 800.269 3487.94 799.973 3497.65 800.334 3507.28 801.352 3526.34 803.37 3545.1 807.948 3562.94 815.119 3589.17 778.953 3618.65 744.687 3649.44 713.053ZM3848.29 766.334 3776.2 726.133C3771.7 728.465 3767.48 731.53 3763.72 735.33 3754.08 745.059 3749.3 757.74 3749.37 770.354L3749.37 770.42C3749.42 783.039 3754.33 795.658 3764.05 805.29 3773.79 814.906 3786.47 819.681 3799.11 819.615L3799.16 819.615C3811.79 819.549 3824.44 814.643 3834.07 804.912 3843.71 795.182 3848.5 782.497 3848.44 769.88L3848.44 769.828C3848.42 768.664 3848.39 767.494 3848.29 766.334ZM3896.33 793.131 3866.32 776.393C3864.91 791.473 3858.49 806.16 3847.04 817.728 3833.9 830.987 3816.61 837.665 3799.25 837.78L3799.2 837.78C3781.84 837.862 3764.48 831.348 3751.22 818.237 3737.95 805.126 3731.27 787.847 3731.17 770.502L3731.17 770.453C3731.1 753.11 3737.62 735.762 3750.76 722.513 3753.09 720.154 3755.57 718.002 3758.15 716.059L3710.95 689.739C3698.71 700.886 3686.51 712.589 3674.41 724.802 3629.72 769.905 3587.59 820.616 3554.12 874.865L3696.56 1015.74C3750.52 981.755 3800.84 939.124 3845.53 894.032 3849.39 890.126 3853.2 886.221 3856.96 882.299L3857.47 881.774C3879.15 859.112 3899.06 836.189 3916.91 813.478ZM3836.41 597.002 3775.89 600.364 3774.82 600.377C3769.81 600.152 3765.94 595.912 3766.15 590.909L3768.85 531.817 3718.62 534.608C3715.84 534.761 3713.3 533.658 3711.53 531.789 3711.02 535.394 3710.77 539.031 3710.79 542.669 3710.88 561.467 3718.09 580.231 3732.43 594.406L3978.07 837.321C3992.41 851.499 4011.25 858.522 4030.07 858.423 4033.72 858.407 4037.35 858.111 4040.96 857.57 4039.07 855.814 4037.92 853.271 4038.05 850.498L4040.34 800.302 3981.37 803.583 3980.31 803.6C3975.31 803.37 3971.42 799.136 3971.65 794.132L3974.41 733.469 3912.16 736.929 3911.09 736.942C3906.08 736.717 3902.21 732.477 3902.44 727.474L3905.25 665.389 3843.3 668.833 3842.24 668.846C3837.24 668.618 3833.34 664.378 3833.57 659.375ZM4058.06 810.278 4056.2 851.318C4056.15 852.138 4056.02 852.942 4055.77 853.697 4065.32 850.087 4074.25 844.442 4081.87 836.763L4083.35 835.269ZM3992.07 745.005 3990.24 784.926 4030.19 782.711ZM3922.92 676.631 3921.03 718.268 3962.68 715.949ZM3854.07 608.536 3852.16 650.169 3893.82 647.854ZM3786.57 541.786 3784.76 581.7 3824.69 579.483ZM3733.4 489.211 3731.92 490.702C3724.32 498.383 3718.77 507.366 3715.25 516.946 3716.01 516.695 3716.8 516.539 3717.64 516.494L3758.68 514.212ZM4007.11 559.961C3985.22 538.323 3938.13 544.484 3879.68 571.935 3874.09 574.562 3868.41 577.383 3862.66 580.395L3988.12 704.481C3991.08 698.697 3993.86 692.991 3996.42 687.381 4023.3 628.713 4028.99 581.596 4007.11 559.961ZM4025.44 541.456 4025.72 541.74C4055.89 571.966 4051.54 629.512 4020.08 698.185 4016.27 706.488 4012.07 714.978 4007.49 723.621L4107.85 822.897C4111.24 826.228 4112.93 830.642 4112.96 835.073L4113 835.122C4113.03 839.552 4111.35 843.999 4107.99 847.396L4100.38 855.076C4081.13 874.504 4055.68 884.317 4030.2 884.448 4004.73 884.596 3979.17 875.062 3959.74 855.831L3935.52 831.889C3918.86 852.926 3900.57 874.094 3880.78 895.032 3884.64 914.576 3884.34 936.072 3880.12 958.29 3878.36 967.496 3875.93 976.833 3872.83 986.219L3871.15 990.42 3870.74 990.846 3837.51 1055.65 3833.24 1061.87C3826.54 1070.99 3819.05 1080.05 3810.79 1088.94 3803.37 1096.95 3795.8 1104.3 3788.14 1110.98 3780.31 1117.82 3772.13 1124.2 3763.69 1130.11 3757.84 1134.23 3749.74 1132.82 3745.62 1126.96 3743.59 1124.09 3742.9 1120.64 3743.42 1117.41 3746.33 1099.82 3746.77 1082.05 3744.77 1064.69 3743.06 1050.05 3739.63 1035.66 3734.47 1021.86 3724.07 1029.01 3713.53 1035.87 3702.85 1042.4 3697.78 1047.11 3689.81 1047.03 3684.85 1042.11 3683.62 1040.89 3682.7 1039.5 3682.04 1038.02L3664.37 1020.53 3624.15 1041.88C3625.22 1045.87 3626.12 1049.89 3626.88 1053.91 3628.42 1062.14 3629.32 1070.33 3629.68 1078.26 3630.01 1085.41 3624.48 1091.5 3617.3 1091.85 3610.12 1092.17 3604.05 1086.64 3603.7 1079.47 3603.39 1072.55 3602.62 1065.56 3601.35 1058.72 3600.33 1053.28 3598.97 1047.87 3597.25 1042.55L3562.76 1008.47 3528.26 974.339C3508.3 968.103 3486.64 967.085 3468.03 969.153L3467.06 969.235C3446.35 971.614 3430.9 976.783 3428.4 981.837 3423.45 991.913 3450.55 993.373 3450.62 993.373 3457.77 993.816 3463.22 999.97 3462.78 1007.11 3462.47 1012.06 3459.42 1016.21 3455.19 1018.14 3442.74 1023.8 3432.51 1030.98 3425.23 1038.53 3418.52 1045.51 3414.51 1052.48 3413.92 1058.34 3413.18 1065.48 3406.79 1070.66 3399.65 1069.92 3392.52 1069.18 3387.33 1062.82 3388.07 1055.68 3389.24 1044.06 3395.81 1031.71 3406.58 1020.51 3409.68 1017.3 3413.15 1014.15 3416.96 1011.13 3403.98 1004.42 3394.32 992.29 3405.1 970.384 3411.22 957.946 3434.88 946.885 3464.12 943.44L3465.18 943.292C3484.61 941.126 3507.08 941.93 3528.68 947.477L3549.65 907.077 3529.9 887.55C3525.16 884.104 3523.37 877.885 3525.42 872.486L3525.46 872.388 3525.54 872.191C3525.91 871.239 3526.39 870.336 3526.98 869.483 3533.53 858.522 3540.43 847.692 3547.63 837.009 3533.73 831.955 3519.24 828.657 3504.53 827.114 3487.13 825.276 3469.35 825.9 3451.77 829.001 3448.53 829.543 3445.09 828.903 3442.19 826.884 3436.29 822.831 3434.79 814.758 3438.86 808.867L3457.61 784.417 3459.46 782.53C3495.05 747.542 3520.44 731.605 3563.72 706.746L3569.72 703.316 3581.55 698.437C3590.97 695.208 3600.37 692.656 3609.63 690.797 3631.89 686.335 3653.47 685.828 3673.11 689.517 3693.84 669.568 3714.81 651.087 3735.67 634.251L3714.1 612.914C3694.66 593.685 3684.85 568.262 3684.74 542.807 3684.67 530.079 3687.02 517.334 3691.8 505.343L3694.49 500.17 3739.53 460.763 3739.79 460.812C3741.88 461.646 3743.85 462.905 3745.56 464.587L3843.3 561.259C3851.9 556.587 3860.36 552.299 3868.64 548.414 3937.04 516.275 3994.59 511.344 4025.14 541.175Z" fill="#1A1A1A" fill-rule="evenodd"/><path d="M3163 204.763 5638 204.763 5638 2679.76 3163 2679.76Z" fill="#000000" fill-rule="evenodd" fill-opacity="0.0117647"/></g></svg>