<?xml version="1.0" encoding="utf-8"?>
<!-- Generator: Adobe Illustrator 27.7.0, SVG Export Plug-In . SVG Version: 6.00 Build 0)  -->
<svg version="1.1" id="Capa_1" xmlns="http://www.w3.org/2000/svg" xmlns:xlink="http://www.w3.org/1999/xlink" x="0px" y="0px"
	 viewBox="0 0 457.34 399.66" style="enable-background:new 0 0 457.34 399.66;" xml:space="preserve">
<style type="text/css">
	.st0{fill:#DB2615;}
	.st1{fill-rule:evenodd;clip-rule:evenodd;}
	.st2{fill-rule:evenodd;clip-rule:evenodd;fill:#DB2615;}
</style>
<g>
	<g>
		<g>
			<g>
				<g>
					<path class="st0" d="M188.46,140.63h-6.52l-6.24-16.76c0.21,1.64,0.36,3.1,0.47,4.37c0.12,1.25,0.19,2.74,0.19,4.46v7.93h-4.56
						V119h6.37l6.4,16.79c-0.46-2.85-0.69-5.53-0.69-8.05V119h4.59V140.63z"/>
					<path class="st0" d="M205.12,132.26h4.56l-2.28-9.55L205.12,132.26z M211.68,140.63l-1.12-4.65h-6.3l-1.09,4.65h-5.31
						l6.52-21.63h6.21l6.52,21.63H211.68z"/>
					<path class="st0" d="M233.46,118.47c1.62,0,3.03,0.23,4.21,0.69c1.21,0.46,2.3,1.15,3.28,2.09l-2.37,2.78
						c-1.48-1.21-3.06-1.81-4.74-1.81c-0.89,0-1.6,0.19-2.12,0.56c-0.52,0.35-0.78,0.87-0.78,1.56c0,0.48,0.11,0.87,0.34,1.19
						c0.23,0.29,0.63,0.57,1.22,0.84c0.58,0.27,1.46,0.59,2.62,0.97c2.21,0.71,3.83,1.58,4.87,2.62c1.04,1.02,1.56,2.48,1.56,4.37
						c0,1.35-0.34,2.55-1.03,3.59c-0.69,1.02-1.67,1.82-2.96,2.4c-1.29,0.56-2.82,0.84-4.59,0.84c-1.77,0-3.34-0.28-4.71-0.84
						c-1.35-0.56-2.52-1.31-3.5-2.25l2.59-2.84c0.83,0.71,1.69,1.24,2.56,1.59c0.89,0.35,1.86,0.53,2.9,0.53
						c1.06,0,1.89-0.23,2.5-0.69c0.62-0.48,0.94-1.13,0.94-1.97c0-0.54-0.11-0.99-0.34-1.34c-0.23-0.37-0.62-0.71-1.19-1
						c-0.56-0.29-1.37-0.6-2.43-0.94c-2.39-0.73-4.1-1.62-5.12-2.68c-1-1.06-1.5-2.4-1.5-4.03c0-1.25,0.33-2.34,1-3.28
						c0.67-0.96,1.59-1.69,2.78-2.18C230.62,118.73,231.96,118.47,233.46,118.47z"/>
					<path class="st0" d="M256.84,132.26h4.56l-2.28-9.55L256.84,132.26z M263.39,140.63l-1.12-4.65h-6.3l-1.09,4.65h-5.31
						l6.52-21.63h6.21l6.52,21.63H263.39z"/>
				</g>
			</g>
			<path class="st1" d="M386.59,225.86v-3.43c-0.05-0.83-0.2-1.65-0.45-2.44c-0.22-0.66-0.52-1.29-0.9-1.87
				c-0.41-0.64-0.85-1.26-1.33-1.85c-1.14-1.33-2.27-2.66-3.41-3.8c-1.14-1.14-2.32-2.35-3.51-3.51c-1.19-1.16-2.47-2.47-3.69-3.75
				c-1.22-1.28-2.55-2.84-3.91-4.45c-1.39-1.5-2.32-3.37-2.66-5.39c-0.3-2.23-0.43-4.47-0.4-6.72v-14.09
				c0-10.26,4.83-15.39,14.49-15.4c5.22,0,8.88,1.28,11.01,3.8c2.38,3.38,3.5,7.48,3.17,11.6v17.02h-8.06v-15.88
				c0.08-1.96-0.33-3.91-1.2-5.67c-0.51-0.76-1.21-1.36-2.05-1.75c-0.83-0.38-1.75-0.52-2.66-0.41c-3.98,0-6.01,2.24-6.01,6.69
				v13.81c-0.05,1.44,0.08,2.88,0.39,4.28c0.38,1.03,0.94,1.99,1.65,2.84c2.09,2.73,4.38,5.29,6.86,7.67
				c2.56,2.37,4.97,4.89,7.21,7.57c1.56,1.75,2.7,3.84,3.32,6.1c0.61,2.87,0.87,5.8,0.79,8.73v13.36c0.27,4.05-0.91,8.07-3.32,11.34
				c-3.14,2.55-7.06,3.94-11.1,3.94c-4.04,0-7.96-1.39-11.1-3.94c-2.51-3.22-3.77-7.25-3.52-11.32v-19.83h8.25v18.6
				c-0.07,2.04,0.38,4.06,1.33,5.86c0.5,0.78,1.2,1.4,2.03,1.8c0.83,0.4,1.75,0.56,2.67,0.47c0.87,0.09,1.74-0.03,2.56-0.33
				c0.82-0.31,1.55-0.79,2.15-1.43c1.04-1.5,1.54-3.31,1.41-5.13L386.59,225.86z M327.98,253.31v-93.12h14.57
				c2.19-0.18,4.39,0.09,6.48,0.79c2.08,0.7,4,1.82,5.63,3.29c2.95,3.58,4.39,8.17,4.02,12.79v15.28c0,5.9-1.33,10.15-3.89,12.78
				c-1.64,1.44-3.56,2.54-5.63,3.22c-2.07,0.68-4.27,0.94-6.44,0.76h-6.04v44.23L327.98,253.31z M349.98,177.07
				c0.18-2.2-0.42-4.39-1.71-6.18c-0.75-0.71-1.64-1.26-2.62-1.61c-0.98-0.34-2.02-0.48-3.05-0.39h-5.9v31.81h5.98
				c1.03,0.1,2.06-0.02,3.04-0.36c0.98-0.33,1.87-0.87,2.63-1.57c1.36-1.78,2.01-4,1.82-6.24v-15.47H349.98z M288.65,253.31v-93.12
				h14.57c2.19-0.18,4.4,0.09,6.48,0.79c2.08,0.71,4,1.84,5.63,3.32c2.92,3.59,4.33,8.18,3.95,12.79v15.28
				c0,5.9-1.33,10.15-3.89,12.78c-1.64,1.44-3.56,2.54-5.64,3.22c-2.08,0.68-4.27,0.94-6.45,0.76h-6.04v44.23L288.65,253.31z
				 M310.71,177.07c0.18-2.2-0.42-4.39-1.71-6.18c-0.75-0.71-1.64-1.26-2.62-1.61c-0.98-0.34-2.02-0.48-3.05-0.39h-5.9v31.81h6.01
				c1.03,0.1,2.06-0.03,3.04-0.36c0.98-0.33,1.87-0.87,2.63-1.57c1.36-1.78,2.01-4,1.81-6.24v-15.47H310.71z M271.52,253.31
				l-2.04-15.61h-13.95l-2.05,15.61h-8.51l12.82-93.12h10.15l12.13,93.12H271.52z M268.46,229.78c-1-8-1.95-15.94-2.84-23.82
				c-0.89-7.89-1.84-15.86-2.84-23.91c-1,8.07-2,16.04-3,23.91c-1,7.87-2.04,15.81-3.12,23.82H268.46z M195.1,253.31v-93.12h24.64
				v8.71h-16.11v32.61h11.34v8.71h-11.34v34.62h16.67v8.51h-25.29L195.1,253.31z M177.21,219.15h7.82v19.26
				c0.33,4.27-0.81,8.52-3.23,12.05c-1.35,1.38-2.99,2.43-4.8,3.08c-1.81,0.65-3.75,0.89-5.66,0.69c-9.9,0-14.85-5.25-14.86-15.74
				v-63.21c0-10.72,4.95-16.08,14.86-16.08c9.07,0,13.61,5.28,13.61,15.85v16.5h-7.74v-16.41c0.14-1.92-0.3-3.84-1.28-5.5
				c-0.56-0.64-1.27-1.14-2.07-1.44c-0.8-0.31-1.65-0.42-2.5-0.32c-4.11,0-6.18,2.44-6.18,7.26v63.38c0,4.9,2.07,7.31,6.18,7.31
				c0.85,0.09,1.7-0.03,2.49-0.34c0.79-0.32,1.49-0.82,2.04-1.47c0.99-1.67,1.45-3.59,1.33-5.53L177.21,219.15z M141.09,253.31
				l-2.03-15.61h-13.95l-2.06,15.61h-8.51l12.82-93.12h10.15l12.11,93.12H141.09z M138.03,229.78c-1-8-1.95-15.94-2.84-23.82
				c-0.89-7.89-1.84-15.86-2.84-23.91c-0.98,8.07-1.99,16.04-3.01,23.91c-1.02,7.87-2.06,15.81-3.12,23.82H138.03z M82.13,253.31
				v-93.12h14.58c2.19-0.18,4.39,0.09,6.48,0.79c2.08,0.7,4,1.82,5.63,3.29c2.91,3.6,4.31,8.18,3.91,12.79v15.28
				c0,5.9-1.28,10.15-3.86,12.78c-1.64,1.44-3.56,2.54-5.63,3.22c-2.07,0.68-4.27,0.94-6.44,0.76h-6.04v44.23L82.13,253.31z
				 M104.11,177.21c0.2-2.2-0.41-4.39-1.7-6.18c-0.75-0.72-1.64-1.26-2.62-1.61c-0.98-0.34-2.02-0.48-3.05-0.39h-5.9v31.68h6.01
				c1.03,0.1,2.06-0.02,3.04-0.35c0.98-0.33,1.87-0.87,2.63-1.57c1.37-1.77,2.02-4,1.82-6.24v-15.48L104.11,177.21z M63.42,225.86
				v-3.43c-0.04-0.83-0.19-1.65-0.46-2.44c-0.21-0.66-0.51-1.29-0.9-1.87c-0.42-0.65-0.88-1.27-1.37-1.87
				c-1.14-1.33-2.27-2.66-3.4-3.8c-1.13-1.14-2.33-2.35-3.52-3.51c-1.19-1.16-2.41-2.41-3.66-3.75c-1.25-1.33-2.55-2.84-3.91-4.45
				c-1.4-1.49-2.33-3.37-2.66-5.39c-0.3-2.23-0.43-4.47-0.4-6.72v-14.07c0-10.26,4.83-15.39,14.49-15.4c5.21,0,8.87,1.28,11,3.8
				c2.38,3.37,3.51,7.48,3.17,11.6v17.02h-8.02v-15.88c0.08-1.96-0.32-3.91-1.19-5.67c-0.51-0.76-1.22-1.37-2.05-1.75
				c-0.83-0.38-1.75-0.52-2.66-0.41c-3.98,0-5.98,2.24-5.98,6.69v13.81c-0.06,1.44,0.07,2.88,0.4,4.28
				c0.36,1.04,0.92,2.01,1.65,2.84c2.07,2.72,4.34,5.28,6.79,7.67c2.57,2.37,4.99,4.9,7.24,7.58c1.55,1.75,2.68,3.84,3.29,6.1
				c0.61,2.87,0.88,5.8,0.8,8.73v13.36c0.27,4.05-0.91,8.07-3.32,11.34c-1.46,1.44-3.22,2.54-5.15,3.22
				c-1.93,0.68-3.99,0.93-6.03,0.73c-2.01,0.18-4.05-0.08-5.95-0.76c-1.9-0.68-3.64-1.77-5.08-3.19c-2.5-3.23-3.73-7.26-3.46-11.34
				v-19.83h8.28v18.6c-0.08,2.04,0.38,4.06,1.33,5.86c0.49,0.77,1.18,1.39,2,1.79c0.82,0.4,1.74,0.57,2.64,0.48
				c0.87,0.09,1.74-0.03,2.56-0.33c0.82-0.31,1.55-0.79,2.15-1.43c1.06-1.49,1.56-3.31,1.42-5.13L63.42,225.86z"/>
			<path class="st1" d="M413.93,83.37c0.82,1.65,0.15,3.65-1.49,4.47l-63.84,31.9c-1.65,0.82-3.65,0.15-4.47-1.49
				c-0.82-1.65-0.15-3.65,1.49-4.47l63.84-31.9C411.11,81.05,413.11,81.72,413.93,83.37z"/>
			<path class="st1" d="M308.75,95.09c0-15.21,12.33-27.54,27.54-27.54c15.21,0,27.54,12.33,27.54,27.54s-12.33,27.54-27.54,27.54
				C321.08,122.64,308.75,110.31,308.75,95.09z M336.29,74.22c-11.53,0-20.88,9.35-20.88,20.88s9.35,20.88,20.88,20.88
				c11.53,0,20.88-9.35,20.88-20.88S347.82,74.22,336.29,74.22z"/>
			<path class="st1" d="M348.02,17.45c1.65,0.82,2.31,2.82,1.49,4.47l-31.9,63.84c-0.82,1.65-2.82,2.31-4.47,1.49
				c-1.65-0.82-2.31-2.82-1.49-4.47l31.9-63.84C344.37,17.3,346.37,16.63,348.02,17.45z"/>
			<path class="st1" d="M357.33,44.8c1.55,0.99,2,3.06,1,4.6l-15.17,23.63c-0.99,1.55-3.06,2-4.6,1c-1.55-0.99-2-3.06-1-4.6
				l15.17-23.63C353.72,44.26,355.78,43.81,357.33,44.8z"/>
			<path class="st1" d="M413.93,83.37c0.82,1.65,0.15,3.65-1.49,4.47l-63.84,31.9c-1.65,0.82-3.65,0.15-4.47-1.49
				c-0.82-1.65-0.15-3.65,1.49-4.47l63.84-31.9C411.11,81.05,413.11,81.72,413.93,83.37z"/>
			<path class="st1" d="M386.58,74.05c0.99,1.55,0.54,3.61-1,4.6l-23.63,15.16c-1.55,0.99-3.61,0.54-4.6-1
				c-0.99-1.55-0.54-3.61,1-4.6l23.63-15.16C383.52,72.05,385.59,72.5,386.58,74.05z"/>
			<path class="st1" d="M378.47,52.91c1.3,1.3,1.3,3.41,0,4.71l-22.71,22.71c-1.3,1.3-3.41,1.3-4.71,0c-1.3-1.3-1.3-3.41,0-4.71
				l22.71-22.71C375.06,51.61,377.17,51.61,378.47,52.91z"/>
			<path class="st1" d="M87.35,315.16c1.43-1.16,3.53-0.94,4.69,0.49c15.29,18.82,34.58,34,56.48,44.42
				c21.9,10.42,45.84,15.83,70.09,15.83c24.25,0,48.19-5.41,70.09-15.83c21.89-10.42,41.19-25.6,56.48-44.42
				c1.16-1.43,3.26-1.65,4.69-0.49c1.43,1.16,1.65,3.26,0.49,4.69c-15.91,19.59-36,35.39-58.79,46.24
				c-22.79,10.85-47.71,16.48-72.95,16.48s-50.16-5.63-72.95-16.48c-22.79-10.85-42.87-26.64-58.79-46.24
				C85.71,318.42,85.92,316.32,87.35,315.16z"/>
			<path class="st1" d="M194.11,44.79c44.51-6.49,89.77,4.95,125.85,31.8c1.48,1.1,1.78,3.19,0.68,4.66
				c-1.1,1.48-3.19,1.78-4.66,0.68c-34.67-25.8-78.15-36.79-120.91-30.55s-81.3,29.19-107.15,63.81c-1.1,1.47-3.19,1.78-4.66,0.68
				c-1.47-1.1-1.78-3.19-0.68-4.66C109.49,75.17,149.61,51.28,194.11,44.79z"/>
		</g>
		<g>
			<g>
				<path d="M165.36,286.25l-3.02,3.55c-0.63-0.46-1.25-0.82-1.85-1.08c-0.6-0.25-1.24-0.38-1.92-0.38c-1.29,0-2.29,0.58-3,1.74
					c-0.71,1.16-1.06,2.89-1.06,5.17s0.36,3.99,1.08,5.12c0.72,1.13,1.74,1.7,3.08,1.7c0.72,0,1.39-0.15,2.01-0.44
					c0.62-0.3,1.32-0.74,2.08-1.33l2.86,3.62c-0.89,0.89-1.96,1.62-3.22,2.2s-2.61,0.87-4.05,0.87c-2.18,0-4.06-0.45-5.65-1.35
					c-1.59-0.9-2.81-2.23-3.68-3.98c-0.87-1.76-1.3-3.89-1.3-6.41c0-2.41,0.44-4.49,1.33-6.24c0.89-1.74,2.12-3.08,3.71-4
					c1.59-0.92,3.42-1.38,5.49-1.38C160.98,283.65,163.35,284.51,165.36,286.25z"/>
				<path d="M178.56,306.37v-8.92h-5.04v8.92h-6.54v-22.08h6.54v8.16h5.04v-8.16h6.54v22.08H178.56z"/>
				<path d="M194.36,284.28v22.08h-6.54v-22.08H194.36z"/>
				<path d="M208.67,306.37v-8.92h-5.04v8.92h-6.54v-22.08h6.54v8.16h5.04v-8.16h6.54v22.08H208.67z"/>
				<path d="M235.96,298.88c0,1.54-0.34,2.93-1.02,4.16s-1.7,2.2-3.08,2.9c-1.38,0.71-3.07,1.06-5.08,1.06
					c-3.02,0-5.31-0.73-6.85-2.19c-1.54-1.46-2.32-3.44-2.32-5.93v-14.6h6.54v14.41c0,1.25,0.21,2.16,0.62,2.75
					c0.41,0.58,1.09,0.87,2.01,0.87c0.93,0,1.6-0.29,2.02-0.87c0.41-0.58,0.62-1.5,0.62-2.75v-14.41h6.54V298.88z"/>
				<path d="M249.63,306.37l-0.86-4.28h-5.24l-0.82,4.28h-6.82l6.44-22.08h7.81l6.41,22.08H249.63z M244.46,297.51h3.39l-1.71-8.66
					L244.46,297.51z"/>
				<path d="M268.7,306.37v-8.92h-5.04v8.92h-6.54v-22.08h6.54v8.16h5.04v-8.16h6.54v22.08H268.7z"/>
				<path d="M295.99,298.88c0,1.54-0.34,2.93-1.02,4.16s-1.7,2.2-3.08,2.9c-1.38,0.71-3.07,1.06-5.08,1.06
					c-3.02,0-5.31-0.73-6.85-2.19c-1.54-1.46-2.32-3.44-2.32-5.93v-14.6h6.54v14.41c0,1.25,0.21,2.16,0.62,2.75
					c0.41,0.58,1.09,0.87,2.01,0.87c0.93,0,1.6-0.29,2.02-0.87c0.41-0.58,0.62-1.5,0.62-2.75v-14.41h6.54V298.88z"/>
				<path d="M309.67,306.37l-0.86-4.28h-5.24l-0.82,4.28h-6.82l6.44-22.08h7.81l6.41,22.08H309.67z M304.49,297.51h3.39l-1.71-8.66
					L304.49,297.51z"/>
			</g>
			<g>
				<path class="st2" d="M133.28,306.37l-6.87-7.98c-1.93-2.24-2.72-5.29-1.94-8.14c0.23-0.83,0.58-1.68,1.12-2.53
					c0.65-1.04,1.43-1.84,2.24-2.46c3.3-2.54,8-2.4,11.22,0.22c0.68,0.56,1.34,1.24,1.92,2.09c0.11,0.16,0.21,0.32,0.31,0.48
					c1.99,3.32,1.46,7.57-1.1,10.48L133.28,306.37z"/>
			</g>
		</g>
	</g>
</g>
</svg>
