<svg width="7185" height="6354" xmlns="http://www.w3.org/2000/svg" xmlns:xlink="http://www.w3.org/1999/xlink" xml:space="preserve" overflow="hidden"><g transform="translate(1199 208)"><path d="M813.174 882.775C861.551 769.114 1217.97 811.987 1609.26 978.533 2000.55 1145.08 2278.54 1372.23 2230.16 1485.89 2181.78 1599.55 1825.36 1556.68 1434.07 1390.13 1042.78 1223.59 764.796 996.435 813.174 882.775Z" stroke="#D9D9D9" stroke-width="4.58333" stroke-miterlimit="8" fill="none" fill-rule="evenodd"/><path d="M-63.135 437.998C56.5962 156.697 938.712 262.803 1907.13 674.993 2875.54 1087.18 3563.53 1649.37 3443.8 1930.67 3324.07 2211.97 2441.95 2105.86 1473.54 1693.67 505.127 1281.48-182.866 719.299-63.135 437.998Z" stroke="#D9D9D9" stroke-width="4.58333" stroke-miterlimit="8" fill="none" fill-rule="evenodd"/><path d="M-1175.32 36.4041C-991.165-396.262 365.607-233.062 1855.11 400.922 3344.62 1034.91 4402.81 1899.6 4218.65 2332.26 4034.5 2764.93 2677.73 2601.73 1188.22 1967.74-301.285 1333.76-1359.48 469.07-1175.32 36.4041Z" stroke="#D9D9D9" stroke-width="4.58333" stroke-miterlimit="8" fill="none" fill-rule="evenodd"/><path d="M-923.057 143.777C-756.125-248.419 473.74-100.484 1823.92 474.199 3174.11 1048.88 4133.32 1832.69 3966.39 2224.89 3799.46 2617.09 2569.59 2469.15 1219.41 1894.47-130.774 1319.78-1089.99 535.973-923.057 143.777Z" stroke="#D9D9D9" stroke-width="4.58333" stroke-miterlimit="8" fill="none" fill-rule="evenodd"/><path d="M2514.35 4884.46C2450.53 4726.04 2718.55 4468.79 3113 4309.87 3507.45 4150.96 3878.96 4150.55 3942.78 4308.97 4006.61 4467.39 3738.58 4724.64 3344.13 4883.56 2949.68 5042.48 2578.18 5042.88 2514.35 4884.46Z" stroke="#D9D9D9" stroke-width="4.58333" stroke-miterlimit="8" fill="none" fill-rule="evenodd"/><path d="M1580.2 5189.6C1422.24 4797.53 2085.58 4160.85 3061.82 3767.54 4038.05 3374.23 4957.5 3373.23 5115.46 3765.3 5273.42 4157.38 4610.08 4794.06 3633.85 5187.37 2657.61 5580.68 1738.17 5581.68 1580.2 5189.6Z" stroke="#D9D9D9" stroke-width="4.58333" stroke-miterlimit="8" fill="none" fill-rule="evenodd"/><path d="M509.799 5692.07C266.84 5089.02 1287.12 4109.75 2788.65 3504.8 4290.18 2899.86 5704.37 2898.32 5947.33 3501.37 6190.29 4104.42 5170.02 5083.69 3668.48 5688.63 2166.95 6293.58 752.758 6295.12 509.799 5692.07Z" stroke="#D9D9D9" stroke-width="4.58333" stroke-miterlimit="8" fill="none" fill-rule="evenodd"/><path d="M764.101 5589.61C543.867 5042.97 1468.71 4155.3 2829.8 3606.94 4190.88 3058.57 5472.8 3057.18 5693.03 3603.82 5913.26 4150.46 4988.42 5038.14 3627.33 5586.5 2266.25 6134.86 984.335 6136.26 764.101 5589.61Z" stroke="#D9D9D9" stroke-width="4.58333" stroke-miterlimit="8" fill="none" fill-rule="evenodd"/></g></svg>